<svg width="20" height="20" viewBox="0 0 20 20" fill="none" xmlns="http://www.w3.org/2000/svg">
<path d="M10.0002 6.66672L3.3335 13.3334V16.6667L6.66683 16.6667L13.3335 10M10.0002 6.66672L12.3907 4.27618L12.3921 4.27476C12.7212 3.94569 12.886 3.78087 13.076 3.71913C13.2434 3.66475 13.4237 3.66475 13.5911 3.71913C13.7809 3.78082 13.9456 3.94546 14.2742 4.27406L15.724 5.72389C16.054 6.05391 16.2191 6.21899 16.2809 6.40926C16.3353 6.57663 16.3353 6.75692 16.2809 6.92429C16.2191 7.11443 16.0543 7.27926 15.7247 7.6088L15.724 7.60951L13.3335 10M10.0002 6.66672L13.3335 10" stroke="white" stroke-width="2" stroke-linecap="round" stroke-linejoin="round"/>
</svg>
