<svg width="24" height="24" viewBox="0 0 24 24" fill="none" xmlns="http://www.w3.org/2000/svg">
<g clip-path="url(#clip0_33303_18156)">
<path d="M23.506 20.4213C23.3223 20.4213 23.1494 20.3181 23.0645 20.1485C23.0361 20.0936 20.7738 15.8987 11.3327 15.756V19.9278C11.3327 20.1157 11.2258 20.2873 11.0573 20.3702C10.8891 20.4531 10.6886 20.4339 10.5387 20.3197L0.193993 12.3919C0.0720752 12.2984 0 12.1537 0 12.0005C0 11.8465 0.0720752 11.7019 0.193993 11.6082L10.5392 3.68073C10.6893 3.56628 10.8895 3.54694 11.0578 3.62944C11.2262 3.71179 11.3332 3.88412 11.3332 4.07161V8.46803C11.5829 8.45214 11.9082 8.43834 12.2921 8.43834C15.8125 8.43834 24 9.55815 24 19.9267C24 20.1561 23.8424 20.3556 23.6188 20.4077C23.5811 20.4174 23.544 20.4213 23.506 20.4213Z" fill="black"/>
</g>
<defs>
<clipPath id="clip0_33303_18156">
<rect width="24" height="24" fill="white"/>
</clipPath>
</defs>
</svg>
